<?xml version="1.0" encoding="UTF-8"?>
<svg width="24px" height="24px" viewBox="0 0 24 24" version="1.1" xmlns="http://www.w3.org/2000/svg" xmlns:xlink="http://www.w3.org/1999/xlink">
    <!-- Generator: Sketch 50.2 (55047) - http://www.bohemiancoding.com/sketch -->
    <title>addPhone</title>
    <desc>Created with Sketch.</desc>
    <defs>
        <path d="M11.6598639,6.67763605 L13.3265306,6.67763605 L13.3265306,8.34430272 C13.3265306,8.80263605 13.7015306,9.17763605 14.1598639,9.17763605 C14.6181973,9.17763605 14.9931973,8.80263605 14.9931973,8.34430272 L14.9931973,6.67763605 L16.6598639,6.67763605 C17.1181973,6.67763605 17.4931973,6.30263605 17.4931973,5.84430272 C17.4931973,5.38596938 17.1181973,5.01096938 16.6598639,5.01096938 L14.9931973,5.01096938 L14.9931973,3.34430272 C14.9931973,2.88596938 14.6181973,2.51096938 14.1598639,2.51096938 C13.7015306,2.51096938 13.3265306,2.88596938 13.3265306,3.34430272 L13.3265306,5.01096938 L11.6598639,5.01096938 C11.2015306,5.01096938 10.8265306,5.38596938 10.8265306,5.84430272 C10.8265306,6.30263605 11.2015306,6.67763605 11.6598639,6.67763605 Z M16.0015306,12.7359694 L13.8848639,12.4943027 C13.3765306,12.4359694 12.8765306,12.6109694 12.5181973,12.9693027 L10.9848639,14.5026361 C8.62653062,13.3026361 6.69319728,11.3776361 5.49319728,9.01096938 L7.03486395,7.46930272 C7.39319728,7.11096938 7.56819728,6.60263605 7.50986395,6.10263605 L7.26819728,4.00263605 C7.17653062,3.16096938 6.45986395,2.51930272 5.61819728,2.51930272 L4.17653062,2.51930272 C3.23486395,2.51930272 2.45153062,3.30263605 2.50986395,4.24430272 C2.95153062,11.3609694 8.64319728,17.0443027 15.7515306,17.4859694 C16.6931973,17.5443027 17.4765306,16.7609694 17.4765306,15.8193027 L17.4765306,14.3776361 C17.4848639,13.5443027 16.8431973,12.8276361 16.0015306,12.7359694 Z" id="path-1"></path>
    </defs>
    <g id="Page-1" stroke="none" stroke-width="1" fill="none" fill-rule="evenodd">
        <g id="切图" transform="translate(-237.000000, -65.000000)">
            <g id="addPhone" transform="translate(237.000000, 65.000000)">
                <g id="icon/communication/add_call_24px" transform="translate(2.000000, 2.000000)">
                    <mask id="mask-2" fill="white">
                        <use xlink:href="#path-1"></use>
                    </mask>
                    <g fill-rule="nonzero"></g>
                    <g id="✱-/-Color-/-Icons-/-Selected-/-On-Surface-/-Active" mask="url(#mask-2)" fill="#000000" fill-opacity="0.87" fill-rule="evenodd">
                        <rect id="Rectangle-3" x="0" y="0" width="20" height="20"></rect>
                    </g>
                </g>
            </g>
        </g>
    </g>
</svg>