<?xml version="1.0" encoding="UTF-8"?>
<svg width="32px" height="32px" viewBox="0 0 32 32" version="1.1" xmlns="http://www.w3.org/2000/svg" xmlns:xlink="http://www.w3.org/1999/xlink">
    <!-- Generator: Sketch 50.2 (55047) - http://www.bohemiancoding.com/sketch -->
    <title>stepper</title>
    <desc>Created with Sketch.</desc>
    <defs>
        <path d="M4.66666667,15.1666667 C5.30833333,15.1666667 5.83333333,14.6416667 5.83333333,14 C5.83333333,13.3583333 5.30833333,12.8333333 4.66666667,12.8333333 C4.025,12.8333333 3.5,13.3583333 3.5,14 C3.5,14.6416667 4.025,15.1666667 4.66666667,15.1666667 Z M4.66666667,19.8333333 C5.30833333,19.8333333 5.83333333,19.3083333 5.83333333,18.6666667 C5.83333333,18.025 5.30833333,17.5 4.66666667,17.5 C4.025,17.5 3.5,18.025 3.5,18.6666667 C3.5,19.3083333 4.025,19.8333333 4.66666667,19.8333333 Z M4.66666667,10.5 C5.30833333,10.5 5.83333333,9.975 5.83333333,9.33333333 C5.83333333,8.69166667 5.30833333,8.16666667 4.66666667,8.16666667 C4.025,8.16666667 3.5,8.69166667 3.5,9.33333333 C3.5,9.975 4.025,10.5 4.66666667,10.5 Z M9.33333333,15.1666667 L23.3333333,15.1666667 C23.975,15.1666667 24.5,14.6416667 24.5,14 C24.5,13.3583333 23.975,12.8333333 23.3333333,12.8333333 L9.33333333,12.8333333 C8.69166667,12.8333333 8.16666667,13.3583333 8.16666667,14 C8.16666667,14.6416667 8.69166667,15.1666667 9.33333333,15.1666667 Z M9.33333333,19.8333333 L23.3333333,19.8333333 C23.975,19.8333333 24.5,19.3083333 24.5,18.6666667 C24.5,18.025 23.975,17.5 23.3333333,17.5 L9.33333333,17.5 C8.69166667,17.5 8.16666667,18.025 8.16666667,18.6666667 C8.16666667,19.3083333 8.69166667,19.8333333 9.33333333,19.8333333 Z M8.16666667,9.33333333 C8.16666667,9.975 8.69166667,10.5 9.33333333,10.5 L23.3333333,10.5 C23.975,10.5 24.5,9.975 24.5,9.33333333 C24.5,8.69166667 23.975,8.16666667 23.3333333,8.16666667 L9.33333333,8.16666667 C8.69166667,8.16666667 8.16666667,8.69166667 8.16666667,9.33333333 Z M4.66666667,15.1666667 C5.30833333,15.1666667 5.83333333,14.6416667 5.83333333,14 C5.83333333,13.3583333 5.30833333,12.8333333 4.66666667,12.8333333 C4.025,12.8333333 3.5,13.3583333 3.5,14 C3.5,14.6416667 4.025,15.1666667 4.66666667,15.1666667 Z M4.66666667,19.8333333 C5.30833333,19.8333333 5.83333333,19.3083333 5.83333333,18.6666667 C5.83333333,18.025 5.30833333,17.5 4.66666667,17.5 C4.025,17.5 3.5,18.025 3.5,18.6666667 C3.5,19.3083333 4.025,19.8333333 4.66666667,19.8333333 Z M4.66666667,10.5 C5.30833333,10.5 5.83333333,9.975 5.83333333,9.33333333 C5.83333333,8.69166667 5.30833333,8.16666667 4.66666667,8.16666667 C4.025,8.16666667 3.5,8.69166667 3.5,9.33333333 C3.5,9.975 4.025,10.5 4.66666667,10.5 Z M9.33333333,15.1666667 L23.3333333,15.1666667 C23.975,15.1666667 24.5,14.6416667 24.5,14 C24.5,13.3583333 23.975,12.8333333 23.3333333,12.8333333 L9.33333333,12.8333333 C8.69166667,12.8333333 8.16666667,13.3583333 8.16666667,14 C8.16666667,14.6416667 8.69166667,15.1666667 9.33333333,15.1666667 Z M9.33333333,19.8333333 L23.3333333,19.8333333 C23.975,19.8333333 24.5,19.3083333 24.5,18.6666667 C24.5,18.025 23.975,17.5 23.3333333,17.5 L9.33333333,17.5 C8.69166667,17.5 8.16666667,18.025 8.16666667,18.6666667 C8.16666667,19.3083333 8.69166667,19.8333333 9.33333333,19.8333333 Z M8.16666667,9.33333333 C8.16666667,9.975 8.69166667,10.5 9.33333333,10.5 L23.3333333,10.5 C23.975,10.5 24.5,9.975 24.5,9.33333333 C24.5,8.69166667 23.975,8.16666667 23.3333333,8.16666667 L9.33333333,8.16666667 C8.69166667,8.16666667 8.16666667,8.69166667 8.16666667,9.33333333 Z" id="path-1"></path>
    </defs>
    <g id="Page-1" stroke="none" stroke-width="1" fill="none" fill-rule="evenodd">
        <g id="切图" transform="translate(-185.000000, -142.000000)">
            <g id="stepper" transform="translate(185.000000, 142.000000)">
                <g id="icon/action/list_24px" transform="translate(2.000000, 2.000000)">
                    <mask id="mask-2" fill="white">
                        <use xlink:href="#path-1"></use>
                    </mask>
                    <g fill-rule="nonzero"></g>
                    <g id="✱-/-Color-/-Icons-/-Selected-/-On-Secondary-/-Active--" mask="url(#mask-2)" fill="#FAFAFA" fill-rule="evenodd">
                        <rect id="Rectangle-3" x="0" y="0" width="28" height="28"></rect>
                    </g>
                </g>
            </g>
        </g>
    </g>
</svg>